<svg xmlns="http://www.w3.org/2000/svg" viewBox="0 0 24 24"><defs><style>.a{fill:none;stroke:currentColor;stroke-linecap:round;stroke-linejoin:round;stroke-width:1.5px}</style></defs><title>office-file-sheet-alternate</title><line x1="8.999" x2="8.999" y1="10.499" y2="19.499" class="a"/><line x1="4.499" x2="19.499" y1="14.999" y2="14.999" class="a"/><path d="M22.81,5.56a1.5,1.5,0,0,1,.439,1.061V21A2.25,2.25,0,0,1,21,23.249H3A2.25,2.25,0,0,1,.749,21V3A2.251,2.251,0,0,1,3,.749H17.378a1.5,1.5,0,0,1,1.061.44Z" class="a"/><path d="M17.249.749v4.5a1.5,1.5,0,0,0,1.5,1.5h4.5" class="a"/><path d="M19.5,18.749a.75.75,0,0,1-.75.75H5.249a.75.75,0,0,1-.75-.75V10.5h14.25a.75.75,0,0,1,.75.75Z" class="a"/><path d="M13.5,10.5h-9V8.249a.75.75,0,0,1,.75-.75H13.5" class="a"/></svg>