<svg xmlns="http://www.w3.org/2000/svg" xmlns:xlink="http://www.w3.org/1999/xlink" width="43" height="34" version="1.1" viewBox="0 0 43 34"><title>markdown</title><desc>Created with Sketch.</desc><g id="Page-1" fill="none" fill-rule="evenodd" stroke="none" stroke-width="1"><rect id="Rectangle" width="39" height="30" x="2" y="2" stroke="#000" stroke-width="2" rx="2"/><polygon id="M" fill="#000" points="19.566 12.613 19.517 12.604 14.917 24 13.638 24 9.039 12.613 8.99 12.623 9.185 18.375 9.185 22.496 10.777 22.77 10.777 24 5.669 24 5.669 22.77 7.261 22.496 7.261 11.295 5.669 11.021 5.669 9.781 9.722 9.781 14.253 21.334 14.312 21.334 18.833 9.781 22.896 9.781 22.896 11.021 21.304 11.295 21.304 22.496 22.896 22.77 22.896 24 17.789 24 17.789 22.77 19.38 22.496 19.38 18.375"/><path id="Stroke-2" stroke="#000" stroke-linecap="round" stroke-linejoin="round" stroke-width="2" d="M36.0769232,18.5010984 L31.0384616,23.53956 L26,18.5010984 M31.0384616,23.53956 L31.0384616,10.4395605"/></g></svg>